# xmcd CD database file
#
# Track frame offsets:
#	150
#	17371
#	34435
#	52200
#	69122
#	75008
#	96251
#	113060
#	132345
#	154560
#	174676
#	191393
#
# Disc length: 2784 seconds
#
# Revision: 1
# Processed by: cddbd v1.5.2PL0 Copyright (c) Steve Scherf et al.
# Submitted via: CDex 1.70beta2
#
DISCID=8e0ade0c
DTITLE=Kim Prevost and Bill Solley - Talk To Me
DYEAR=2002
DGENRE=Jazz
TTITLE0=Good Life
TTITLE1=Find aWay
TTITLE2=Elenor Rigby
TTITLE3=Lush Life
TTITLE4=Kim and Bill Interlude
TTITLE5=I Can't Believe (I Fell In Love)
TTITLE6=I'll Be Lovin' You Right
TTITLE7=So Sweetly
TTITLE8=Give me Your Love
TTITLE9=Talk to Me
TTITLE10=Secret Desires
TTITLE11=Rush into the Flame
EXTD=YEAR: 2002
EXTT0=
EXTT1=
EXTT2=
EXTT3=
EXTT4=
EXTT5=
EXTT6=
EXTT7=
EXTT8=
EXTT9=
EXTT10=
EXTT11=
PLAYORDER=
